<?xml version="1.0" encoding="UTF-8"?>
<svg id="uuid-f8cb21b1-5074-4a15-bf65-a68033e9e42e" data-name="Capa 1" xmlns="http://www.w3.org/2000/svg" viewBox="0 0 2000 2000">
  <text transform="translate(2401.43 1380.87)" fill="#1d1d1b" font-family="RalewayRoman-Medium, Raleway" font-size="80" font-variation-settings="&apos;wght&apos; 500" font-weight="500"><tspan x="0" y="0" letter-spacing="0em">Digita</tspan><tspan x="218.88" y="0" letter-spacing="-.03em">l</tspan><tspan x="239.76" y="0" letter-spacing="0em"> </tspan><tspan x="260.4" y="0" letter-spacing="-.03em"> </tspan><tspan x="278.56" y="0" letter-spacing="-.01em">A</tspan><tspan x="331.91" y="0" letter-spacing="0em">gen</tspan><tspan x="477.51" y="0" letter-spacing="0em">c</tspan><tspan x="521.51" y="0" letter-spacing="-.02em">y</tspan></text>
  <polygon points="909.85 1190.4 847.4 1252.86 478.98 1252.86 393.67 1252.86 478.98 1167.55 478.98 1167.53 798.13 1167.53 668.37 942.78 637.16 888.69 187.64 1338.21 187.62 1338.21 152.26 1338.21 66.95 1338.21 891.81 513.33 1012.48 513.33 969.82 556 699.61 826.22 896.65 1167.53 909.85 1190.4" fill="#f9ae1f"/>
  <g>
    <path d="m1933.82,1112.52v140.36h-56.87v-142.21c0-47.06-38.27-85.33-85.33-85.33s-85.31,38.25-85.33,85.31v142.23h-56.89v-142.23c0-47.04-38.27-85.33-85.33-85.33s-85.31,38.29-85.31,85.33v142.23h-56.89v-284.43h56.89v28.42c23.76-17.84,53.32-28.42,85.33-28.42,46.52,0,87.82,22.34,113.77,56.87,25.95-34.54,67.25-56.87,113.77-56.87,68.8,0,126.19,48.85,139.38,113.77,1.75,8.61,2.73,17.52,2.83,26.63v3.67Z" fill="#fff"/>
    <path d="m1222.73,968.45c78.55,0,142.23,63.68,142.23,142.21s-63.68,142.23-142.23,142.23-142.21-63.68-142.21-142.23,63.66-142.21,142.21-142.21Zm85.33,142.21c0-47.04-38.27-85.33-85.33-85.33s-85.33,38.29-85.33,85.33,38.29,85.33,85.33,85.33,85.33-38.27,85.33-85.33Z" fill="#fff"/>
    <rect x="966.74" y="826.24" width="56.89" height="426.64" fill="#fff"/>
  </g>
  <g>
    <path d="m375.95,1309.7h6.08l23.2,56.8h-7.68l-6.37-16.64h-24.43l-6.4,16.64h-7.68l23.28-56.8Zm13.09,34.56l-10.05-26.24-10.09,26.24h20.14Z" fill="#fff"/>
    <path d="m427.55,1367.3c-2.83,0-5.43-.57-7.8-1.72-2.37-1.15-4.41-2.72-6.12-4.72-1.71-2-3.03-4.28-3.96-6.84-.93-2.56-1.4-5.23-1.4-8,0-2.93.47-5.71,1.4-8.32.93-2.61,2.27-4.92,4-6.92,1.73-2,3.77-3.57,6.12-4.72,2.35-1.15,4.96-1.72,7.84-1.72,3.47,0,6.49.84,9.08,2.52,2.59,1.68,4.76,3.83,6.52,6.44v-8.32h6.24v41.11c0,3.93-.95,7.25-2.84,9.96-1.89,2.71-4.45,4.77-7.68,6.17-3.23,1.41-6.81,2.11-10.76,2.11-4.69,0-8.53-.83-11.52-2.48-2.99-1.65-5.47-3.89-7.44-6.72l4.08-3.6c1.65,2.45,3.8,4.29,6.44,5.52,2.64,1.23,5.45,1.84,8.44,1.84,2.56,0,4.92-.46,7.08-1.36s3.89-2.3,5.2-4.17c1.31-1.87,1.96-4.21,1.96-7.03v-7.36c-1.55,2.56-3.67,4.59-6.36,6.08-2.69,1.49-5.53,2.24-8.52,2.24Zm2.16-5.76c1.49,0,2.93-.27,4.32-.8s2.67-1.24,3.84-2.12c1.17-.88,2.16-1.88,2.96-3,.8-1.12,1.33-2.27,1.6-3.44v-12c-.75-1.92-1.81-3.61-3.2-5.08-1.39-1.47-2.96-2.61-4.72-3.44-1.76-.83-3.57-1.24-5.44-1.24-2.13,0-4.04.45-5.72,1.36-1.68.91-3.11,2.12-4.28,3.64-1.17,1.52-2.08,3.21-2.72,5.08-.64,1.87-.96,3.76-.96,5.68,0,2.08.37,4.04,1.12,5.88.75,1.84,1.76,3.48,3.04,4.92,1.28,1.44,2.8,2.56,4.56,3.36,1.76.8,3.63,1.2,5.6,1.2Z" fill="#fff"/>
    <path d="m479.71,1367.3c-3.15,0-6.01-.57-8.6-1.71s-4.83-2.7-6.72-4.69c-1.89-1.98-3.36-4.27-4.4-6.87-1.04-2.59-1.56-5.35-1.56-8.26,0-3.92.91-7.49,2.72-10.72,1.81-3.23,4.33-5.82,7.56-7.78,3.23-1.96,6.92-2.94,11.08-2.94s7.88.99,11,2.98c3.12,1.99,5.55,4.58,7.28,7.79,1.73,3.21,2.6,6.66,2.6,10.37,0,.53-.01,1.05-.04,1.55-.03.5-.07.89-.12,1.15h-34.64c.21,2.69.97,5.08,2.28,7.16,1.31,2.08,3,3.72,5.08,4.9s4.32,1.78,6.72,1.78c2.56,0,4.97-.64,7.24-1.92,2.27-1.28,3.83-2.96,4.68-5.04l6.08,1.68c-.91,2.03-2.25,3.84-4.04,5.44-1.79,1.6-3.89,2.85-6.32,3.76-2.43.91-5.05,1.36-7.88,1.36Zm-14.08-24h28.48c-.21-2.69-.99-5.06-2.32-7.12-1.33-2.06-3.04-3.66-5.12-4.82-2.08-1.16-4.37-1.74-6.88-1.74s-4.72.58-6.8,1.74c-2.08,1.16-3.77,2.77-5.08,4.82-1.31,2.06-2.07,4.43-2.28,7.12Z" fill="#fff"/>
    <path d="m545.15,1366.5h-7.04v-23.15c0-4.39-.68-7.6-2.04-9.63-1.36-2.04-3.43-3.05-6.2-3.05-1.92,0-3.83.47-5.72,1.42-1.89.95-3.57,2.23-5.04,3.83-1.47,1.61-2.52,3.46-3.16,5.57v25.01h-7.04v-41.52h6.4v8.97c1.12-1.96,2.56-3.65,4.32-5.08,1.76-1.43,3.76-2.54,6-3.33,2.24-.79,4.59-1.19,7.04-1.19s4.41.44,6.04,1.31,2.91,2.09,3.84,3.65c.93,1.56,1.6,3.4,2,5.52.4,2.12.6,4.42.6,6.91v24.77Z" fill="#fff"/>
    <path d="m574.99,1367.3c-3.15,0-6.01-.57-8.6-1.71-2.59-1.14-4.83-2.71-6.72-4.73-1.89-2.01-3.36-4.31-4.4-6.91s-1.56-5.35-1.56-8.26c0-3.92.88-7.49,2.64-10.72,1.76-3.23,4.24-5.81,7.44-7.74,3.2-1.93,6.91-2.9,11.12-2.9s7.69.92,10.76,2.76c3.07,1.84,5.35,4.31,6.84,7.4l-6.88,2.16c-1.07-1.97-2.56-3.51-4.48-4.6-1.92-1.09-4.05-1.64-6.4-1.64-2.56,0-4.89.66-7,1.98-2.11,1.32-3.77,3.13-5,5.42-1.23,2.3-1.84,4.92-1.84,7.88s.63,5.53,1.88,7.88c1.25,2.35,2.93,4.21,5.04,5.58,2.11,1.37,4.44,2.06,7,2.06,1.65,0,3.24-.29,4.76-.88,1.52-.59,2.85-1.37,4-2.36,1.15-.99,1.93-2.07,2.36-3.24l6.88,2.08c-.85,2.03-2.15,3.83-3.88,5.4-1.73,1.57-3.79,2.81-6.16,3.72s-4.97,1.36-7.8,1.36Z" fill="#fff"/>
    <path d="m601.22,1316.9v-8.8h7.04v8.8h-7.04Zm0,49.6v-41.76h7.04v41.76h-7.04Z" fill="#fff"/>
    <path d="m616.74,1354.5c0-2.65.76-4.94,2.28-6.88,1.52-1.93,3.61-3.43,6.28-4.49,2.67-1.06,5.76-1.59,9.28-1.59,1.87,0,3.84.15,5.92.44s3.92.73,5.52,1.32v-3.02c0-3.16-.96-5.64-2.88-7.46-1.92-1.81-4.64-2.72-8.16-2.72-2.29,0-4.49.41-6.6,1.24-2.11.83-4.33,2.01-6.68,3.56l-2.56-4.96c2.72-1.87,5.44-3.27,8.16-4.2,2.72-.93,5.55-1.4,8.48-1.4,5.33,0,9.55,1.47,12.64,4.4,3.09,2.94,4.64,7.02,4.64,12.25v17.53c0,.85.17,1.47.52,1.86.35.4.92.62,1.72.67v5.44c-.69.11-1.29.19-1.8.24-.51.05-.92.08-1.24.08-1.65,0-2.89-.45-3.72-1.36-.83-.91-1.29-1.87-1.4-2.88l-.16-2.64c-1.81,2.35-4.19,4.16-7.12,5.44-2.93,1.28-5.84,1.92-8.72,1.92s-5.25-.57-7.44-1.71c-2.19-1.14-3.89-2.68-5.12-4.61-1.23-1.94-1.84-4.1-1.84-6.48Zm27.2,2.93c.64-.74,1.15-1.49,1.52-2.26.37-.77.56-1.41.56-1.94v-5.15c-1.65-.63-3.39-1.12-5.2-1.46-1.81-.34-3.6-.52-5.36-.52-3.57,0-6.47.7-8.68,2.1-2.21,1.4-3.32,3.31-3.32,5.74,0,1.32.36,2.6,1.08,3.84.72,1.24,1.79,2.26,3.2,3.05,1.41.79,3.16,1.19,5.24,1.19,2.19,0,4.27-.43,6.24-1.31,1.97-.87,3.55-1.97,4.72-3.29Z" fill="#fff"/>
    <path d="m686.5,1366.5v-56.8h19.68c6.08,0,11.16,1.27,15.24,3.8,4.08,2.53,7.13,5.95,9.16,10.24,2.03,4.29,3.04,9.05,3.04,14.28,0,5.76-1.12,10.77-3.36,15.04-2.24,4.27-5.41,7.57-9.52,9.92-4.11,2.35-8.96,3.52-14.56,3.52h-19.68Zm39.84-28.48c0-4.27-.79-8.05-2.36-11.36-1.57-3.31-3.85-5.89-6.84-7.76-2.99-1.87-6.64-2.8-10.96-2.8h-12.48v44h12.48c4.37,0,8.05-.97,11.04-2.92,2.99-1.95,5.25-4.59,6.8-7.92,1.55-3.33,2.32-7.08,2.32-11.24Z" fill="#fff"/>
    <path d="m743.06,1316.9v-8.8h7.04v8.8h-7.04Zm0,49.6v-41.76h7.04v41.76h-7.04Z" fill="#fff"/>
    <path d="m778.5,1367.3c-2.83,0-5.43-.57-7.8-1.72s-4.41-2.72-6.12-4.72-3.03-4.28-3.96-6.84c-.93-2.56-1.4-5.23-1.4-8,0-2.93.47-5.71,1.4-8.32.93-2.61,2.27-4.92,4-6.92,1.73-2,3.77-3.57,6.12-4.72,2.35-1.15,4.96-1.72,7.84-1.72,3.47,0,6.49.84,9.08,2.52,2.59,1.68,4.76,3.83,6.52,6.44v-8.32h6.24v41.11c0,3.93-.95,7.25-2.84,9.96-1.89,2.71-4.45,4.77-7.68,6.17-3.23,1.41-6.81,2.11-10.76,2.11-4.69,0-8.53-.83-11.52-2.48-2.99-1.65-5.47-3.89-7.44-6.72l4.08-3.6c1.65,2.45,3.8,4.29,6.44,5.52,2.64,1.23,5.45,1.84,8.44,1.84,2.56,0,4.92-.46,7.08-1.36s3.89-2.3,5.2-4.17c1.31-1.87,1.96-4.21,1.96-7.03v-7.36c-1.55,2.56-3.67,4.59-6.36,6.08-2.69,1.49-5.53,2.24-8.52,2.24Zm2.16-5.76c1.49,0,2.93-.27,4.32-.8,1.39-.53,2.67-1.24,3.84-2.12,1.17-.88,2.16-1.88,2.96-3s1.33-2.27,1.6-3.44v-12c-.75-1.92-1.81-3.61-3.2-5.08-1.39-1.47-2.96-2.61-4.72-3.44-1.76-.83-3.57-1.24-5.44-1.24-2.13,0-4.04.45-5.72,1.36-1.68.91-3.11,2.12-4.28,3.64-1.17,1.52-2.08,3.21-2.72,5.08-.64,1.87-.96,3.76-.96,5.68,0,2.08.37,4.04,1.12,5.88.75,1.84,1.76,3.48,3.04,4.92,1.28,1.44,2.8,2.56,4.56,3.36s3.63,1.2,5.6,1.2Z" fill="#fff"/>
    <path d="m812.18,1316.9v-8.8h7.04v8.8h-7.04Zm0,49.6v-41.76h7.04v41.76h-7.04Z" fill="#fff"/>
    <path d="m852.58,1364.66c-.59.27-1.39.61-2.4,1.04-1.01.43-2.19.8-3.52,1.12-1.33.32-2.75.48-4.24.48-1.71,0-3.28-.31-4.72-.92-1.44-.61-2.59-1.57-3.44-2.88-.85-1.31-1.28-2.95-1.28-4.92v-28.08h-5.68v-5.52h5.68v-13.92h7.04v13.92h9.36v5.52h-9.36v25.92c.11,1.49.61,2.6,1.52,3.32.91.72,1.97,1.08,3.2,1.08,1.39,0,2.67-.24,3.84-.72,1.17-.48,1.95-.83,2.32-1.04l1.68,5.6Z" fill="#fff"/>
    <path d="m856.26,1354.5c0-2.65.76-4.94,2.28-6.88,1.52-1.93,3.61-3.43,6.28-4.49,2.67-1.06,5.76-1.59,9.28-1.59,1.87,0,3.84.15,5.92.44s3.92.73,5.52,1.32v-3.02c0-3.16-.96-5.64-2.88-7.46-1.92-1.81-4.64-2.72-8.16-2.72-2.29,0-4.49.41-6.6,1.24-2.11.83-4.33,2.01-6.68,3.56l-2.56-4.96c2.72-1.87,5.44-3.27,8.16-4.2,2.72-.93,5.55-1.4,8.48-1.4,5.33,0,9.55,1.47,12.64,4.4,3.09,2.94,4.64,7.02,4.64,12.25v17.53c0,.85.17,1.47.52,1.86.35.4.92.62,1.72.67v5.44c-.69.11-1.29.19-1.8.24-.51.05-.92.08-1.24.08-1.65,0-2.89-.45-3.72-1.36-.83-.91-1.29-1.87-1.4-2.88l-.16-2.64c-1.81,2.35-4.19,4.16-7.12,5.44-2.93,1.28-5.84,1.92-8.72,1.92s-5.25-.57-7.44-1.71c-2.19-1.14-3.89-2.68-5.12-4.61-1.23-1.94-1.84-4.1-1.84-6.48Zm27.2,2.93c.64-.74,1.15-1.49,1.52-2.26.37-.77.56-1.41.56-1.94v-5.15c-1.65-.63-3.39-1.12-5.2-1.46-1.81-.34-3.6-.52-5.36-.52-3.57,0-6.47.7-8.68,2.1-2.21,1.4-3.32,3.31-3.32,5.74,0,1.32.36,2.6,1.08,3.84.72,1.24,1.79,2.26,3.2,3.05,1.41.79,3.16,1.19,5.24,1.19,2.19,0,4.27-.43,6.24-1.31,1.97-.87,3.55-1.97,4.72-3.29Z" fill="#fff"/>
    <path d="m904.42,1308.09h7.04v47.82c0,2.3.32,3.72.96,4.26.64.54,1.41.8,2.32.8,1.12,0,2.19-.12,3.2-.36,1.01-.24,1.87-.49,2.56-.76l1.12,5.76c-1.17.48-2.56.88-4.16,1.2-1.6.32-3.01.48-4.24.48-2.72,0-4.87-.78-6.44-2.33-1.57-1.55-2.36-3.72-2.36-6.51v-50.36Z" fill="#fff"/>
  </g>
</svg>